<svg xmlns="http://www.w3.org/2000/svg" viewBox="0 0 24 24" shape-rendering="crispEdges"><path fill="#74b9ff" d="M0 0h24v24H0"/><path fill="#413332" d="M5 19h11v1h1v1h1v1h1v1h1v1h1H2v-2h1v-2h2"/><path fill="#ffbfaa" d="M4 22h1v2H4m12-2h1v2h-1"/><path fill="#231f2a" d="M6 19h9v5H6"/><path d="M6 7h9v4H6m1-5h8v1H7m1-2h5v1H8"/><path fill="#a64627" d="M9 7h5v1h1v8h-1v1h-1v1H9v-1H8v-1H7V9h1V8h1"/><path fill="#62271d" d="M8 17h1v1h4v2h-1v1H9v-1H8m-2-9h1v2H6m4 2h2v1h-2m-1-6h2v1H9m3-1h2v1h-2"/><path fill="#73301a" d="M11 12h1v2h-1m2-3h1v1h-1m-3-1h1v1h-1"/><path d="M12 11h1v1h-1m-3-1h1v1H9"/></svg>